<?xml version="1.0" standalone="no"?>
<!DOCTYPE svg PUBLIC "-//W3C//DTD SVG 20010904//EN"
 "http://www.w3.org/TR/2001/REC-SVG-20010904/DTD/svg10.dtd">
<svg version="1.0" xmlns="http://www.w3.org/2000/svg"
 width="400.000000pt" height="374.000000pt" viewBox="0 0 400.000000 374.000000"
 preserveAspectRatio="xMidYMid meet">

<g transform="translate(0.000000,374.000000) scale(0.100000,-0.100000)"
fill="#000000" stroke="none">
<path d="M1723 2339 c-690 -690 -1268 -1272 -1284 -1293 l-29 -39 0 -376 c0
-213 4 -382 10 -391 8 -12 75 -14 465 -14 308 1 459 4 467 12 6 6 12 112 16
286 3 152 9 279 13 282 5 3 15 1 24 -3 8 -5 138 -131 290 -281 152 -150 291
-280 309 -289 26 -12 44 -14 82 -7 27 5 47 14 45 19 -2 6 -174 183 -382 394
l-379 384 0 308 c0 203 4 310 10 314 6 4 21 0 34 -8 13 -9 337 -328 721 -709
l697 -693 66 -3 c36 -2 69 1 75 7 6 6 -130 150 -377 399 l-386 389 0 289 c0
159 3 299 6 312 4 13 13 22 21 20 7 -2 334 -320 725 -708 391 -388 720 -708
731 -713 28 -11 56 1 69 29 9 20 7 29 -17 61 -16 21 -364 374 -774 785 -409
412 -748 754 -753 760 -9 15 -11 551 -2 597 5 24 11 30 30 29 13 -1 22 -4 20
-5 -4 -4 1463 -1467 1476 -1472 34 -12 39 101 6 145 -11 16 -173 182 -360 369
l-338 341 0 245 c0 308 5 369 33 369 12 0 136 -116 338 -316 176 -175 324
-314 331 -312 15 5 23 78 13 116 -3 14 -152 172 -353 374 l-347 349 -6 57 c-9
73 -9 427 0 511 4 39 11 66 19 69 7 2 157 -139 336 -317 177 -177 327 -321
333 -321 13 0 23 33 23 82 0 27 -9 48 -39 85 -52 65 -700 707 -730 722 -23 13
-66 -29 -1278 -1240z"/>
</g>
</svg>
