<?xml version="1.0" encoding="UTF-8"?><svg xmlns="http://www.w3.org/2000/svg" viewBox="0 0 300 300" x="0px" y="0px" width="300px" height="300px" version="1.1" xmlns:xlink="http://www.w3.org/1999/xlink"><title>Investment Colored Icons</title><g id="Layer_2" data-name="Layer 2"><rect x="111.47" y="69.47" width="116.77" height="52.26" style="fill:#2a94f4;"/><polygon points="95.77 143.51 169.63 143.51 169.63 132.66 181.17 132.66 181.17 142.49 190.36 142.49 190.36 220.68 186.19 224.19 74.53 223.34 73.51 165.78 95.77 143.51" style="fill:#2a94f4;"/><path d="M127.94,79.55l83.1-.76s2.17,5.74,4.47,6.12,1.4,19.54,1.4,19.54l-5.1,7.27H127.94l-7-7.15V85.3Z" style="fill:#cce9ff;"/><polygon points="84.28 170.45 104.51 170.45 104.51 185.89 84.66 185.89 84.28 170.45" style="fill:#cce9ff;"/><polygon points="84.98 196.87 105.21 196.87 105.21 211.81 84.28 211.81 84.98 196.87" style="fill:#cce9ff;"/><polygon points="128.25 186.66 148.43 186.66 148.43 175.81 127.49 175.81 128.25 186.66" style="fill:#cce9ff;"/><polygon points="160.17 176.51 161.13 186.21 179.19 185.83 179.89 175.81 160.17 176.51" style="fill:#cce9ff;"/><polygon points="158.83 196.81 158.83 212.19 180.6 212.19 180.6 197.19 158.83 196.81" style="fill:#cce9ff;"/><path d="M147.6,222.72s3.25-15.76,0-19.4-7.92-6.58-9.13-6.45-3.61-.83-6.18.58-3.33,1.15-4.48,3.38-1.34,2.36-1.34,5.11-.26,2.55-.26,5.87.45,4.59.51,6.32.07,2.16.07,2.55-.9.77.25,1S147.6,222.72,147.6,222.72Z" style="fill:#cce9ff;"/><polygon points="97.63 145.43 116.96 164.68 189.98 164.06 190.87 142.75 181.17 142.49 179.89 149.13 169 149 169 141.85 97.63 145.43" style="fill:#cce9ff;"/></g><g id="Layer_1" data-name="Layer 1"><path d="M73.63,226H191a2.67,2.67,0,0,0,2.67-2.66v-80a2.67,2.67,0,0,0-2.67-2.67h-8v-8a2.67,2.67,0,0,0-2.67-2.67H169.63a2.67,2.67,0,0,0-2.67,2.67v8H95a2.58,2.58,0,0,0-.91.17,2.53,2.53,0,0,0-.23.12,2.47,2.47,0,0,0-.61.4s-.1,0-.14.09L71.74,162.79a2.67,2.67,0,0,0-.78,1.89v58.67A2.66,2.66,0,0,0,73.63,226ZM135,220.68h-5.33V207.35a7.19,7.19,0,0,1,.15-1.47c0-.15.07-.29.1-.44a7.65,7.65,0,0,1,.3-1l.18-.45a7.92,7.92,0,0,1,.5-.9,3.62,3.62,0,0,1,.2-.33,7.54,7.54,0,0,1,.89-1.07c.05-.06.12-.1.17-.16.29-.26.59-.51.9-.74l.38-.24a7.5,7.5,0,0,1,.88-.48,3.89,3.89,0,0,1,.41-.18c.09,0,.18-.05.27-.09Zm10.67,0h-5.34V199.84a8,8,0,0,1,5.34,7.51Zm42.66,0H151V207.35a13.34,13.34,0,1,0-26.67,0v13.33H119V167.35h69.33Zm-16-85.33h5.34V146h-5.34ZM167,146v2.67a2.67,2.67,0,0,0,2.67,2.67h10.66a2.67,2.67,0,0,0,2.67-2.67V146h5.33v16H117.4l-16-16ZM76.29,165.78,95,147.12l18.67,18.66v54.9H76.29Zm0,0" style="fill:#0b4870;"/><path d="M105.63,167.35H84.29A2.66,2.66,0,0,0,81.63,170v16a2.67,2.67,0,0,0,2.66,2.67h21.34a2.67,2.67,0,0,0,2.66-2.67V170a2.66,2.66,0,0,0-2.66-2.66Zm-13.34,16H87V172.68h5.33Zm10.67,0H97.63V172.68H103Zm0,0" style="fill:#0b4870;"/><path d="M105.63,194H84.29a2.67,2.67,0,0,0-2.66,2.67v16a2.67,2.67,0,0,0,2.66,2.67h21.34a2.67,2.67,0,0,0,2.66-2.67v-16a2.67,2.67,0,0,0-2.66-2.67ZM92.29,210H87V199.35h5.33ZM103,210H97.63V199.35H103Zm0,0" style="fill:#0b4870;"/><path d="M127,188.68h21.33A2.67,2.67,0,0,0,151,186V175.35a2.66,2.66,0,0,0-2.67-2.67H127a2.67,2.67,0,0,0-2.67,2.67V186a2.68,2.68,0,0,0,2.67,2.67ZM140.29,178h5.34v5.34h-5.34Zm-10.66,0H135v5.34h-5.33Zm0,0" style="fill:#0b4870;"/><path d="M159,188.68h21.33A2.67,2.67,0,0,0,183,186V175.35a2.66,2.66,0,0,0-2.67-2.67H159a2.67,2.67,0,0,0-2.67,2.67V186a2.68,2.68,0,0,0,2.67,2.67ZM172.29,178h5.34v5.34h-5.34Zm-10.66,0H167v5.34h-5.33Zm0,0" style="fill:#0b4870;"/><path d="M159,215.35h21.33a2.67,2.67,0,0,0,2.67-2.67v-16a2.67,2.67,0,0,0-2.67-2.67H159a2.68,2.68,0,0,0-2.67,2.67v16a2.68,2.68,0,0,0,2.67,2.67Zm13.33-16h5.34V210h-5.34Zm-10.66,0H167V210h-5.33Zm0,0" style="fill:#0b4870;"/><path d="M228.29,66H111a2.68,2.68,0,0,0-2.67,2.67V122a2.68,2.68,0,0,0,2.67,2.67H228.29A2.67,2.67,0,0,0,231,122V68.68A2.67,2.67,0,0,0,228.29,66Zm-2.66,53.34h-112v-48h112Zm0,0" style="fill:#0b4870;"/><path d="M121.63,108.68a2.66,2.66,0,0,1,2.66,2.67A2.67,2.67,0,0,0,127,114h85.33a2.66,2.66,0,0,0,2.67-2.66,2.66,2.66,0,0,1,2.67-2.67,2.67,2.67,0,0,0,2.66-2.67V84.68A2.67,2.67,0,0,0,217.63,82,2.66,2.66,0,0,1,215,79.35a2.66,2.66,0,0,0-2.67-2.67H127a2.67,2.67,0,0,0-2.67,2.67A2.66,2.66,0,0,1,121.63,82,2.67,2.67,0,0,0,119,84.68V106a2.67,2.67,0,0,0,2.67,2.67ZM179,82h31A8,8,0,0,0,215,86.89V103.8a8,8,0,0,0-4.88,4.88H179A22.84,22.84,0,0,0,183,95.35,22.85,22.85,0,0,0,179,82Zm-9.41,0c4.33,0,8,6.11,8,13.34s-3.67,13.33-8,13.33-8-6.11-8-13.33,3.66-13.34,8-13.34Zm-45.34,4.88A8,8,0,0,0,129.17,82h31.05a22.93,22.93,0,0,0-3.93,13.34,22.92,22.92,0,0,0,3.93,13.33H129.17a8,8,0,0,0-4.88-4.88Zm0,0" style="fill:#0b4870;"/><path d="M143,103.35a8,8,0,1,0-8-8,8,8,0,0,0,8,8Zm0-10.67a2.67,2.67,0,1,1-2.67,2.67A2.67,2.67,0,0,1,143,92.68Zm0,0" style="fill:#0b4870;"/><path d="M196.29,103.35a8,8,0,1,0-8-8,8,8,0,0,0,8,8Zm0-10.67a2.67,2.67,0,1,1-2.66,2.67,2.66,2.66,0,0,1,2.66-2.67Zm0,0" style="fill:#0b4870;"/><path d="M76.29,111.35H93.86l-3.45,3.44,3.77,3.77,8-8a2.67,2.67,0,0,0,0-3.77l-8-8-3.77,3.77L93.86,106H73.63A2.67,2.67,0,0,0,71,108.68v32h5.33Zm0,0" style="fill:#0b4870;"/><path d="M225.63,164.68H208.06l3.45-3.45-3.77-3.77-8,8a2.67,2.67,0,0,0,0,3.77l8,8,3.77-3.77L208.06,170h20.23a2.66,2.66,0,0,0,2.67-2.66v-32h-5.33Zm0,0" style="fill:#0b4870;"/></g></svg>